<mxfile host="app.diagrams.net" modified="2023-06-27T01:39:43.004Z" agent="Mozilla/5.0 (Macintosh; Intel Mac OS X 10.15; rv:109.0) Gecko/20100101 Firefox/114.0" version="21.3.8" etag="Q5OoNcfRGHZmHIykPLMM" type="github">
  <diagram name="第 1 页" id="2wK9YVMmRuwrjZUc15iq">
    <mxGraphModel>
      <root>
        <mxCell id="0" />
        <mxCell id="1" parent="0" />
      </root>
    </mxGraphModel>
  </diagram>
</mxfile>
